<?xml version="1.0" encoding="UTF-8"?>
<svg class="footer-brands-logo__eq"
   style="fill:#fff;"
   viewBox="0 0 150.15486 12"
   version="1.1"
   xmlns="http://www.w3.org/2000/svg"
   xmlns:svg="http://www.w3.org/2000/svg">
  <path
	 d="m 146.49691,11.524018 a 6,6 0 1 1 3.18202,-3.1820986 l -1.38425,-1.3839788 a 4.2497807,4.2497807 0 1 0 -3.18182,3.1819194 z m 1.98831,0.04345 1.23734,-1.237363 -4.9496,-4.9496169 -1.23756,1.2373634 z M 126.91555,6.8738293 V 5.123924 h 8.74972 v 1.7499053 z m -1.62502,-0.8748592 a 3.8314263,3.8314263 0 0 1 1.20798,-2.7399906 c 0.66949,-0.6696866 1.96913,-1.1351547 4.03445,-1.1351547 h 5.88265 V 0.37393542 h -6.10494 c -2.14763,0 -4.03006,0.64001458 -5.04799,1.65822198 a 5.1962464,5.1962464 0 0 0 -1.72216,3.9668286 5.19821,5.19821 0 0 0 1.72216,3.9671984 c 1.01793,1.0176226 2.90036,1.6578326 5.04799,1.6578326 h 6.22974 V 9.8739326 h -6.00744 c -2.06532,0 -3.36497,-0.4654521 -4.03445,-1.1349758 A 3.8313826,3.8313826 0 0 1 125.29053,5.998986 Z m -7.79124,0.8818588 V 5.1342904 h 4.28078 v 1.7465385 z m -2.49361,3.7911291 a 3.2501636,3.2501636 0 0 0 0,-4.596091 c -0.95181,-0.9518078 -1.94266,-0.9518078 -3.08967,-0.9518078 h -4.55007 c -1.07343,0 -1.43295,-0.020089 -1.85221,-0.4392462 a 1.5000994,1.5000994 0 0 1 0,-2.1213962 c 0.41926,-0.4193442 0.77878,-0.4392462 1.85221,-0.4392462 h 8.03345 V 0.37405467 h -8.03345 c -1.14711,0 -2.13776,0 -3.08967,0.95197093 a 3.2500404,3.2500404 0 0 0 -7e-5,4.596119 c 0.95197,0.951792 1.94263,0.951792 3.08974,0.951792 h 4.55009 c 1.07333,0 1.43295,0.020109 1.85231,0.4394409 a 1.5000994,1.5000994 0 0 1 0,2.1212017 c -0.41935,0.4193441 -0.77898,0.439262 -1.85231,0.439262 h -8.4167 v 1.7501038 h 8.4167 c 1.14701,0 2.13786,0 3.08966,-0.951987 z M 91.916995,6.8738293 V 5.123924 h 8.749725 V 6.8738293 Z M 90.291971,5.9989701 a 3.8314382,3.8314382 0 0 1 1.207981,-2.7399906 c 0.669492,-0.6696866 1.969129,-1.1351547 4.034449,-1.1351547 h 5.882659 V 0.37393542 h -6.104951 c -2.147619,0 -4.030053,0.64001458 -5.047986,1.65822198 a 5.1962504,5.1962504 0 0 0 -1.722157,3.9668286 5.19821,5.19821 0 0 0 1.722157,3.9671984 c 1.017933,1.0176226 2.900367,1.6578326 5.047986,1.6578326 h 6.229741 V 9.8739326 h -6.007449 c -2.06532,0 -3.364973,-0.4654521 -4.034449,-1.1349758 A 3.8313945,3.8313945 0 0 1 90.291971,5.998986 Z M 85.517243,2.0318951 C 84.49931,1.0138626 82.617055,0.37404672 80.469432,0.37404672 h -5.688099 l -0.0093,11.24988228 h 5.697388 c 2.147623,0 4.029878,-0.640209 5.047811,-1.6578321 A 5.1979159,5.1979159 0 0 0 87.239384,5.9988985 5.1971765,5.1971765 0 0 0 85.517231,2.031911 Z M 84.281608,8.7388694 C 83.612216,9.4083771 82.312551,9.8738452 80.24716,9.8738452 H 76.531353 V 2.123952 h 3.715807 c 2.065407,0 3.365088,0.4654522 4.034448,1.1351507 a 3.7114303,3.7114303 0 0 1 0,5.4797667 z M 62.948407,6.8738293 V 5.123924 h 8.749721 V 6.8738293 Z M 61.323383,5.9989701 a 3.8314382,3.8314382 0 0 1 1.207981,-2.7399906 c 0.669492,-0.6696866 1.969129,-1.1351547 4.034449,-1.1351547 h 5.882651 V 0.37393542 H 66.34352 c -2.147618,0 -4.030052,0.64001458 -5.047989,1.65822198 a 5.1962584,5.1962584 0 0 0 -1.722153,3.9668286 5.1982219,5.1982219 0 0 0 1.722153,3.9671984 c 1.017953,1.0176226 2.900371,1.6578326 5.047989,1.6578326 h 6.229745 V 9.8739326 h -6.007437 c -2.065319,0 -3.364972,-0.4654521 -4.034448,-1.1349758 A 3.8313945,3.8313945 0 0 1 61.323383,5.998986 Z m -13.590122,0 A 3.8314104,3.8314104 0 0 1 48.941342,3.2589795 C 49.61054,2.5894876 50.910471,2.1240196 52.975791,2.1240196 h 5.465616 V 0.37390363 h -5.687813 c -2.147718,0 -4.030168,0.64001457 -5.047886,1.65804707 a 5.1965883,5.1965883 0 0 0 -1.722253,3.9670035 5.1976257,5.1976257 0 0 0 1.722253,3.9671984 c 1.017718,1.0176234 2.900168,1.6578324 5.047886,1.6578324 h 5.813 V 9.8739326 h -5.590791 c -2.06532,0 -3.365263,-0.4654521 -4.034449,-1.1349758 A 3.8303769,3.8303769 0 0 1 47.733261,5.998986 Z m -4.172542,0.076873 A 3.4670142,3.4670142 0 0 0 43.191327,5.7540929 3.2483789,3.2483789 0 0 0 43.035832,1.3260295 C 42.083924,0.37405864 41.093171,0.37405864 39.94616,0.37405864 H 32.224777 V 11.623945 h 1.749925 V 2.1241627 h 5.971458 c 1.073342,0 1.432857,0.019874 1.852209,0.4392461 a 1.5000795,1.5000795 0 0 1 0,2.1213963 C 41.379025,5.1039624 41.019502,5.1240512 39.94616,5.1240512 h -4.584812 v 1.7499053 h 5.109703 c 1.073343,0 1.432877,0.020109 1.85221,0.4394408 0.419344,0.4191574 0.439345,0.7787718 0.439345,1.85211 v 2.4584297 h 1.750001 V 9.1655073 c 0,-1.1470116 0,-2.1376615 -0.951888,-3.0896482 z M 20.378643,6.8738293 V 5.123924 h 8.749721 V 6.8738293 Z M 18.753619,5.9989701 A 3.8314382,3.8314382 0 0 1 19.9616,3.2589795 C 20.631092,2.5892929 21.930729,2.1238248 23.996049,2.1238248 H 29.8787 V 0.37393542 h -6.104944 c -2.147618,0 -4.030052,0.64001458 -5.047989,1.65822198 a 5.1962584,5.1962584 0 0 0 -1.722153,3.9668286 5.1982219,5.1982219 0 0 0 1.722153,3.9671984 c 1.017953,1.0176226 2.900371,1.6578326 5.047989,1.6578326 h 6.229745 V 9.8739326 h -6.007436 c -2.06532,0 -3.364973,-0.4654521 -4.034449,-1.1349758 A 3.8313945,3.8313945 0 0 1 18.753619,5.998986 Z M 7.4608317,5.9944904 C 7.357681,5.9763016 7.3222692,5.9562128 7.0320115,5.5416623 L 3.9954789,1.2048888 A 2.3224472,2.3224472 0 0 0 2.4378121,0.03279597 2.0636939,2.0636939 0 0 0 0.62035067,0.60542931 2.3227731,2.3227731 0 0 0 0.01622084,2.4596579 V 11.623945 H 1.7662255 V 2.4596698 c 0,-0.506055 0.017489,-0.5428022 0.092053,-0.6174336 A 0.3137211,0.3137211 0 0 1 2.1332132,1.7560978 C 2.2363758,1.7740918 2.2717915,1.7942005 2.56193,2.208751 l 3.0366559,4.3367696 a 2.3229758,2.3229758 0 0 0 1.5594634,1.1724902 2.0719059,2.0719059 0 0 0 0.7141769,0 2.3232382,2.3232382 0 0 0 1.5594832,-1.1724902 L 12.468246,2.208751 c 0.290258,-0.4145505 0.325673,-0.4346592 0.42882,-0.4526532 a 0.31396356,0.31396356 0 0 1 0.274951,0.086138 c 0.07453,0.074631 0.09206,0.1113786 0.09206,0.6174336 v 9.1642756 h 1.75 V 2.4596698 A 2.3227731,2.3227731 0 0 0 14.409945,0.60544124 2.0637297,2.0637297 0 0 0 12.592463,0.03279597 2.322165,2.322165 0 0 0 11.03482,1.2048768 L 7.9982639,5.5416782 C 7.7079307,5.9562287 7.6726144,5.9763175 7.5693484,5.9945063 a 0.32347532,0.32347532 0 0 1 -0.1085128,0 z"
	 id="path2"
	 style="stroke-width:0.397483" />
</svg>